<?xml version="1.0" standalone="no"?>
<!DOCTYPE svg PUBLIC "-//W3C//DTD SVG 20010904//EN"
 "http://www.w3.org/TR/2001/REC-SVG-20010904/DTD/svg10.dtd">
<svg version="1.0" xmlns="http://www.w3.org/2000/svg"
 width="840.000000pt" height="572.000000pt" viewBox="0 0 840.000000 572.000000"
 preserveAspectRatio="xMidYMid meet">
<metadata>
Created by potrace 1.16, written by Peter Selinger 2001-2019
</metadata>
<g transform="translate(0.000000,572.000000) scale(0.100000,-0.100000)"
fill="#000000" stroke="none">
<path d="M5702 3507 l-32 -33 285 -284 c249 -249 282 -286 263 -291 -13 -3
-894 -4 -1958 -3 -1064 1 -2004 0 -2088 -3 l-152 -6 0 -38 0 -39 2105 0 c1158
0 2105 -3 2105 -7 0 -5 -125 -133 -277 -285 l-277 -277 29 -31 29 -30 320 317
320 318 -3 45 c-2 45 -4 47 -320 363 l-317 318 -32 -34z"/>
</g>
</svg>
